<svg id="mobile" xmlns="http://www.w3.org/2000/svg" viewBox="0 0 256 256"><g id="echoDeviceIcon"><circle id="point" cx="128" cy="128" r="28"/><path id="waveRight1" d="M174.666,181.166a7.5,7.5,0,0,1-5.3594-12.7471,58.4978,58.4978,0,0,0-.4414-82.2846,7.5,7.5,0,0,1,10.6075-10.6065,73.5,73.5,0,0,1,.5527,103.3853A7.4793,7.4793,0,0,1,174.666,181.166Z"/><path id="waveLeft1" d="M81.333,182.166a7.4757,7.4757,0,0,1-5.2461-2.1406,73.5,73.5,0,0,1,0-105.0513A7.5,7.5,0,0,1,86.58,85.6929a58.5,58.5,0,0,0,0,83.6137A7.5,7.5,0,0,1,81.333,182.166Z"/><path id="waveLeft2" d="M43.8555,219.6445a7.4771,7.4771,0,0,1-5.2715-2.165,126.5,126.5,0,0,1,0-179.958A7.5,7.5,0,1,1,49.1279,48.19a111.4992,111.4992,0,0,0,0,158.6192,7.5,7.5,0,0,1-5.2724,12.8349Z"/><path id="waveRight2" d="M212.1445,218.6445A7.5,7.5,0,0,1,206.81,205.873a111.5,111.5,0,0,0-.4678-157.2153,7.5,7.5,0,0,1,10.6074-10.6064,126.5006,126.5006,0,0,1,.53,178.3647A7.4806,7.4806,0,0,1,212.1445,218.6445Z"/></g></svg>