<svg id="echo" xmlns="http://www.w3.org/2000/svg" viewBox="0 0 256 256"><g id="echoDeviceIcon"><path id="letter" d="M78.7144,206.2141A78.2141,78.2141,0,1,1,132.9629,71.6565a7.5,7.5,0,0,1-10.4053,10.8047,63.2138,63.2138,0,1,0-.001,91.0791,7.5,7.5,0,1,1,10.4043,10.8047A77.8326,77.8326,0,0,1,78.7144,206.2141Z"/><path id="wave1" d="M144.3555,161.8489a7.5049,7.5049,0,0,1-6.9571-10.2979,63.4794,63.4794,0,0,0,0-47.1015,7.5,7.5,0,1,1,13.918-5.5918,78.4693,78.4693,0,0,1,0,58.2851A7.5024,7.5024,0,0,1,144.3555,161.8489Z"/><path id="wave2" d="M190.1064,180.2112a7.5049,7.5049,0,0,1-6.957-10.2979,112.9494,112.9494,0,0,0,0-83.8266,7.5,7.5,0,1,1,13.918-5.5918,127.9393,127.9393,0,0,1,0,95.01A7.5025,7.5025,0,0,1,190.1064,180.2112Z"/><path id="wave3" d="M235.8584,198.5745a7.5038,7.5038,0,0,1-6.958-10.2979,162.4168,162.4168,0,0,0,.001-120.5527,7.5,7.5,0,1,1,13.9179-5.5913,177.4171,177.4171,0,0,1,.001,131.7358A7.5037,7.5037,0,0,1,235.8584,198.5745Z"/></g></svg>