<svg id="mobile" xmlns="http://www.w3.org/2000/svg" viewBox="0 0 256 256"><defs><style>.cls-1{fill:#3183e6;}</style></defs><g id="echoDeviceIcon"><circle id="button" class="cls-1" cx="128.5" cy="208.5" r="12.5"/><path id="case" class="cls-1" d="M200.3887,256H55.6113A22.6372,22.6372,0,0,1,33,233.3887V22.6113A22.6372,22.6372,0,0,1,55.6113,0H200.3887A22.6372,22.6372,0,0,1,223,22.6113V233.3887A22.6372,22.6372,0,0,1,200.3887,256ZM55.6113,15A7.62,7.62,0,0,0,48,22.6113V233.3887A7.62,7.62,0,0,0,55.6113,241H200.3887A7.62,7.62,0,0,0,208,233.3887V22.6113A7.62,7.62,0,0,0,200.3887,15Z"/></g></svg>