<svg id="pc" xmlns="http://www.w3.org/2000/svg" viewBox="0 0 256 256"><defs><style>.cls-1{fill:#fff;}</style></defs><g id="echoDeviceIcon"><path id="stand" class="cls-1" d="M175.0805,215.54H80.92a7.3563,7.3563,0,0,1,0-14.7126h94.161a7.3563,7.3563,0,0,1,0,14.7126Z"/><path id="screen" class="cls-1" d="M233.7672,190.5287H22.2328A22.2586,22.2586,0,0,1,0,168.296V62.6925A22.2586,22.2586,0,0,1,22.2328,40.46H233.7672A22.2586,22.2586,0,0,1,256,62.6925V168.296A22.2586,22.2586,0,0,1,233.7672,190.5287ZM22.2328,55.1724a7.5288,7.5288,0,0,0-7.52,7.52V168.296a7.5288,7.5288,0,0,0,7.52,7.52H233.7672a7.5288,7.5288,0,0,0,7.52-7.52V62.6925a7.5288,7.5288,0,0,0-7.52-7.52Z"/></g></svg>