<svg id="printer" xmlns="http://www.w3.org/2000/svg" viewBox="0 0 256 256"><defs><style>.cls-1{fill:#fff;}</style></defs><g id="echoDeviceIcon"><path id="case" class="cls-1" d="M233.37,69H191V8.5A7.5027,7.5027,0,0,0,183.5,1H69.5A7.5027,7.5027,0,0,0,62,8.5V69H22.63A22.6533,22.6533,0,0,0,0,91.63v95.74A22.6533,22.6533,0,0,0,22.63,210H45.5a7.5,7.5,0,0,0,0-15H22.63A7.635,7.635,0,0,1,15,187.37V91.63A7.635,7.635,0,0,1,22.63,84H233.37A7.635,7.635,0,0,1,241,91.63v95.74a7.635,7.635,0,0,1-7.63,7.63H207.5a7.5,7.5,0,0,0,0,15h25.87A22.6533,22.6533,0,0,0,256,187.37V91.63A22.6533,22.6533,0,0,0,233.37,69ZM77,69V16h99V69Z"/><path id="sheetOut" class="cls-1" d="M203.5,152H49.5a7.5,7.5,0,0,0,0,15H62v81.5a7.5027,7.5027,0,0,0,7.5,7.5h114a7.5027,7.5027,0,0,0,7.5-7.5V167h12.5a7.5,7.5,0,0,0,0-15ZM176,241H77V167h99Z"/><path id="sheetLine1" class="cls-1" d="M158.5,196h-63a7.5,7.5,0,0,1,0-15h63a7.5,7.5,0,0,1,0,15Z"/><path id="sheetLine2" class="cls-1" d="M158.5,227h-63a7.5,7.5,0,0,1,0-15h63a7.5,7.5,0,0,1,0,15Z"/><path id="led" class="cls-1" d="M215.5,117h-25a7.5,7.5,0,0,1,0-15h25a7.5,7.5,0,0,1,0,15Z"/></g></svg>