<svg id="router" xmlns="http://www.w3.org/2000/svg" viewBox="0 0 256 256"><defs><style>.cls-1{fill:#3183e6;}</style></defs><g id="echoDeviceIcon"><path id="arrowDown" class="cls-1" d="M172.3581,214.7253l-39.0824,39.0823a7.468,7.468,0,0,1-10.5715,0L83.732,214.8354a7.4716,7.4716,0,1,1,10.5714-10.5615l26.2285,26.2284V151.9872c0-3.754,3.3436-6.8073,7.4681-6.8073s7.4681,3.0533,7.4681,6.8073v78.4951l26.3185-26.3185a7.4716,7.4716,0,1,1,10.5715,10.5615Z"/><path id="arrowRight" class="cls-1" d="M110.6412,135.169,70.6278,175.1724A7.468,7.468,0,1,1,60.0664,164.611l27.26-27.27H8.11a7.4757,7.4757,0,0,1,0-14.9361H87.3059l-27.36-27.36A7.4716,7.4716,0,0,1,70.5177,84.4841l40.1235,40.1135A7.4862,7.4862,0,0,1,110.6412,135.169Z"/><path id="arrowLeft" class="cls-1" d="M255.0277,129.8733a7.2837,7.2837,0,0,1-7.0776,7.468h-79.266l27.36,27.36a7.4716,7.4716,0,0,1-10.5614,10.5715L145.3588,135.149a7.4863,7.4863,0,0,1,0-10.5715l40.0034-40.0033a7.4716,7.4716,0,0,1,10.5714,10.5614l-27.27,27.27H247.95A7.2838,7.2838,0,0,1,255.0277,129.8733Z"/><path id="arrowUp" class="cls-1" d="M172.268,51.7286a7.4863,7.4863,0,0,1-10.5715,0L135.4681,25.49V103.755a7.48,7.48,0,0,1-14.9362,0V25.51L94.2034,51.8387A7.4716,7.4716,0,0,1,83.6419,41.2672L122.7243,2.1849a7.486,7.486,0,0,1,10.5714,0L172.268,41.1571A7.4863,7.4863,0,0,1,172.268,51.7286Z"/></g></svg>