<svg id="server" xmlns="http://www.w3.org/2000/svg" viewBox="0 0 256 256"><defs><style>.cls-1{fill:#3183e6;}</style></defs><g id="echoDeviceIcon"><path id="ring" class="cls-1" d="M128,216a28,28,0,1,1,28-28A28.0314,28.0314,0,0,1,128,216Zm0-41a13,13,0,1,0,13,13A13.0147,13.0147,0,0,0,128,175Z"/><path id="line3" class="cls-1" d="M175.5,117h-94a7.5,7.5,0,0,1,0-15h94a7.5,7.5,0,0,1,0,15Z"/><path id="line2" class="cls-1" d="M175.5,91h-94a7.5,7.5,0,0,1,0-15h94a7.5,7.5,0,0,1,0,15Z"/><path id="line1" class="cls-1" d="M175.5,65h-94a7.5,7.5,0,0,1,0-15h94a7.5,7.5,0,0,1,0,15Z"/><path id="case" class="cls-1" d="M200.3887,256H55.6113A22.6372,22.6372,0,0,1,33,233.3887V22.6113A22.6372,22.6372,0,0,1,55.6113,0H200.3887A22.6372,22.6372,0,0,1,223,22.6113V233.3887A22.6372,22.6372,0,0,1,200.3887,256ZM55.6113,15A7.62,7.62,0,0,0,48,22.6113V233.3887A7.62,7.62,0,0,0,55.6113,241H200.3887A7.62,7.62,0,0,0,208,233.3887V22.6113A7.62,7.62,0,0,0,200.3887,15Z"/></g></svg>