<svg id="switch" xmlns="http://www.w3.org/2000/svg" viewBox="0 0 256 256"><defs><style>.cls-1{fill:#3183e6;}</style></defs><g id="echoDeviceIcon"><path id="arrowLeftBottom" class="cls-1" d="M162.15,155.33a7.2151,7.2151,0,0,1-7.17,7.26H27.28l25.76,25.75a7.2655,7.2655,0,0,1-10.28,10.27L4.61,160.46a7.2547,7.2547,0,0,1,0-10.27l38.04-38.04a7.2655,7.2655,0,1,1,10.28,10.27L27.29,148.06H154.98A7.2173,7.2173,0,0,1,162.15,155.33Z"/><path id="arrowRightBottom" class="cls-1" d="M251.39,215.83l-38.04,38.04a7.262,7.262,0,0,1-10.27-10.27l25.63-25.64H101.03a7.2656,7.2656,0,0,1,0-14.53H228.72l-25.75-25.75a7.2655,7.2655,0,0,1,10.27-10.28l38.15,38.16A7.2547,7.2547,0,0,1,251.39,215.83Z"/><path id="arrowRightTop" class="cls-1" d="M251.39,105.81l-38.04,38.04a7.262,7.262,0,0,1-10.27-10.27l25.63-25.64H101.03a7.2656,7.2656,0,0,1,0-14.53H228.72L202.97,67.66a7.2655,7.2655,0,0,1,10.27-10.28l38.15,38.16A7.2547,7.2547,0,0,1,251.39,105.81Z"/><path id="arrowLeftTop" class="cls-1" d="M162.15,45.31a7.1271,7.1271,0,0,1-6.98,7.26H27.28L53.04,78.32A7.2691,7.2691,0,0,1,42.76,88.6L4.61,50.44a7.2547,7.2547,0,0,1,0-10.27L42.65,2.13A7.2655,7.2655,0,0,1,52.93,12.4L27.29,38.04H155.17A7.13,7.13,0,0,1,162.15,45.31Z"/></g></svg>