<svg id="voip" xmlns="http://www.w3.org/2000/svg" viewBox="0 0 256 256"><defs><style>.cls-1{fill:#3183e6;}</style></defs><g id="echoDeviceIcon"><path id="phone" class="cls-1" d="M224.29,210.71l-9.1937,9.1937a17.915,17.915,0,0,1-16.1,4.8992,213.702,213.702,0,0,1-54.1827-18.3252,214.5447,214.5447,0,0,1-56.478-40.6236,214.4076,214.4076,0,0,1-38.9328-53.1464,213.5408,213.5408,0,0,1-19.09-52.9987,17.8923,17.8923,0,0,1,4.8274-16.447L45.9914,32.4113a17.859,17.859,0,0,1,25.2563,0L87.8455,49.0092a17.8588,17.8588,0,0,1,0,25.2563l-5.9117,5.9117A17.884,17.884,0,0,0,79.09,101.746a199.1249,199.1249,0,0,0,31.8468,41.5069,198.9368,198.9368,0,0,0,45.0888,33.8587,17.8579,17.8579,0,0,0,21.2024-3.0483l5.2075-5.2075a17.859,17.859,0,0,1,25.2563,0L224.29,185.4537A17.8588,17.8588,0,0,1,224.29,210.71Z"/></g></svg>