<svg id="Слой_1" data-name="Слой 1" xmlns="http://www.w3.org/2000/svg" viewBox="0 0 689.76 204.39"><defs><style>.cls-1{fill:#06f;}.cls-2{fill:#3b94ff;}.cls-3{fill:#7bb1ff;}.cls-4{fill:#fff;}</style></defs><path class="cls-1" d="M1139.71,633.27a73.5,73.5,0,1,1,51-126.45,7.5,7.5,0,1,1-10.4,10.8,58.51,58.51,0,1,0,0,84.29,7.5,7.5,0,0,1,10.4,10.81A73.16,73.16,0,0,1,1139.71,633.27Z" transform="translate(-615.45 -429.93)"/><path class="cls-1" d="M1201,591.86a7.5,7.5,0,0,1-7-10.3,58.78,58.78,0,0,0,0-43.59,7.5,7.5,0,0,1,13.92-5.59,73.79,73.79,0,0,1,0,54.77A7.51,7.51,0,0,1,1201,591.86Z" transform="translate(-615.45 -429.93)"/><path class="cls-2" d="M1243.68,609a7.69,7.69,0,0,1-2.8-.54,7.51,7.51,0,0,1-4.16-9.76,104.94,104.94,0,0,0,0-77.87,7.5,7.5,0,0,1,13.92-5.59,119.95,119.95,0,0,1,0,89A7.51,7.51,0,0,1,1243.68,609Z" transform="translate(-615.45 -429.93)"/><path class="cls-3" d="M1286.38,626.14a7.41,7.41,0,0,1-2.79-.55,7.5,7.5,0,0,1-4.17-9.75,151.08,151.08,0,0,0,0-112.14,7.5,7.5,0,0,1,13.92-5.6,166.11,166.11,0,0,1,0,123.33A7.5,7.5,0,0,1,1286.38,626.14Z" transform="translate(-615.45 -429.93)"/><path class="cls-4" d="M849.38,633.6a73.5,73.5,0,1,1,51-126.45A7.5,7.5,0,0,1,890,518a58.5,58.5,0,1,0,0,84.29,7.5,7.5,0,1,1,10.41,10.8A73.18,73.18,0,0,1,849.38,633.6Z" transform="translate(-615.45 -429.93)"/><path class="cls-4" d="M1045.45,548.64v77.68a7.5,7.5,0,0,1-15,0V548.64c0-29.41-16.32-46.28-44.78-46.28-25.91,0-44.08,27.89-44.79,46.42v77.54a7.5,7.5,0,0,1-15,0V437.43a7.5,7.5,0,1,1,15,0V511c10.52-13.35,26-23.62,44.79-23.62C1022.54,487.36,1045.45,510.84,1045.45,548.64Z" transform="translate(-615.45 -429.93)"/><path class="cls-4" d="M689,634.32a73.5,73.5,0,1,1,51-126.44c1,.94,23.52,23.16,18.27,54.19a7.5,7.5,0,0,1-7.39,6.25H630.93A58.51,58.51,0,0,0,729.53,603a7.5,7.5,0,0,1,10.4,10.8A73.14,73.14,0,0,1,689,634.32Zm-58-81H744c.29-20.12-14.3-34.49-14.46-34.65a58.51,58.51,0,0,0-98.59,34.65Z" transform="translate(-615.45 -429.93)"/></svg>