<svg id="Слой_1" data-name="Слой 1" xmlns="http://www.w3.org/2000/svg" viewBox="0 0 689.7588 204.3932"><defs><style>.cls-1{fill:#06f;}.cls-2{fill:#3b94ff;}.cls-3{fill:#7bb1ff;}.cls-4{fill:#2c2c2c;}</style></defs><path class="cls-1" d="M1139.7129,633.2676A73.5,73.5,0,1,1,1190.6914,506.82a7.5,7.5,0,0,1-10.4043,10.8047,58.5,58.5,0,1,0-.0019,84.2861,7.5,7.5,0,0,1,10.4043,10.8047A73.1371,73.1371,0,0,1,1139.7129,633.2676Z" transform="translate(-615.4541 -429.93)"/><path class="cls-1" d="M1200.9775,591.8594a7.5038,7.5038,0,0,1-6.958-10.2979,58.73,58.73,0,0,0,0-43.5879,7.5,7.5,0,0,1,13.92-5.5913,73.7451,73.7451,0,0,1,0,54.771A7.5038,7.5038,0,0,1,1200.9775,591.8594Z" transform="translate(-615.4541 -429.93)"/><path class="cls-2" d="M1243.6787,608.998a7.5047,7.5047,0,0,1-6.957-10.2978,104.9141,104.9141,0,0,0,0-77.8652,7.5,7.5,0,1,1,13.9179-5.5918,119.9027,119.9027,0,0,1,0,89.0488A7.5021,7.5021,0,0,1,1243.6787,608.998Z" transform="translate(-615.4541 -429.93)"/><path class="cls-3" d="M1286.38,626.1367a7.5046,7.5046,0,0,1-6.957-10.2978,151.085,151.085,0,0,0,0-112.1426,7.5,7.5,0,1,1,13.9179-5.5918,166.0736,166.0736,0,0,1,0,123.3262A7.5024,7.5024,0,0,1,1286.38,626.1367Z" transform="translate(-615.4541 -429.93)"/><path class="cls-4" d="M849.3794,633.6006a73.5,73.5,0,1,1,50.979-126.4473,7.5,7.5,0,1,1-10.4053,10.8047,58.5,58.5,0,1,0-.001,84.2871A7.5,7.5,0,1,1,900.3564,613.05,73.1431,73.1431,0,0,1,849.3794,633.6006Z" transform="translate(-615.4541 -429.93)"/><path class="cls-4" d="M1045.45,548.64v77.68a7.5,7.5,0,0,1-15,0V548.64c0-29.41-16.32-46.28-44.78-46.28-25.91,0-44.08,27.89-44.79,46.42v77.54a7.5,7.5,0,0,1-15,0V437.43a7.5,7.5,0,1,1,15,0v73.55c10.52-13.35,26.02-23.62,44.79-23.62C1022.54,487.36,1045.45,510.84,1045.45,548.64Z" transform="translate(-615.4541 -429.93)"/><path class="cls-4" d="M688.9541,634.3232a73.5,73.5,0,1,1,50.979-126.4477c.9741.9424,23.5132,23.16,18.2671,54.1977a7.5,7.5,0,0,1-7.395,6.25H630.9326a58.5028,58.5028,0,0,0,98.5938,34.6436,7.5,7.5,0,0,1,10.4052,10.8047A73.14,73.14,0,0,1,688.9541,634.3232Zm-58.0215-81H743.98c.2871-20.125-14.3018-34.4975-14.4639-34.6547a58.5038,58.5038,0,0,0-98.5835,34.6547Z" transform="translate(-615.4541 -429.93)"/></svg>